<svg width="24" height="24" viewBox="0 0 24 24" fill="none" xmlns="http://www.w3.org/2000/svg">
<g clip-path="url(#clip0_0_1712)">
<path d="M24 6.79688C23.9532 7.065 23.9169 7.33562 23.8582 7.60062C23.4969 9.22812 22.6288 10.52 21.2607 11.4694C21.1019 11.58 21.0794 11.6888 21.1032 11.8569C21.4319 14.1475 21.0513 16.3169 19.98 18.3656C19.7744 18.7594 19.4113 18.9637 19.0307 18.9162C18.3432 18.83 17.9888 18.145 18.3169 17.5112C18.7732 16.6306 19.0913 15.7062 19.2413 14.7256C19.3582 13.9587 19.3857 13.1894 19.2838 12.3969C16.9913 12.8825 14.9507 12.3981 13.2832 10.7394C11.6119 9.0775 11.1182 7.04063 11.6007 4.72875C11.5463 4.71625 11.49 4.69625 11.4325 4.69125C6.93628 4.30062 2.90753 7.26062 2.05753 11.6912C1.41878 15.0219 2.45941 17.8337 5.00066 20.0844C5.08253 20.1569 5.17253 20.22 5.25066 20.2962C5.54128 20.5787 5.62565 20.9156 5.49878 21.3025C5.46753 21.3975 5.42816 21.49 5.38003 21.6156C5.81128 21.5562 6.21628 21.4806 6.62503 21.4519C6.87441 21.4344 7.14878 21.4338 7.37815 21.5175C10.19 22.5444 12.8638 22.2869 15.4025 20.6919C15.7613 20.4663 16.1244 20.4406 16.48 20.6756C16.8113 20.8944 16.935 21.22 16.8769 21.6106C16.8382 21.8713 16.7025 22.0775 16.4844 22.2231C15.1238 23.1287 13.6325 23.6894 12.0125 23.9062C11.7738 23.9381 11.535 23.9688 11.2957 24C10.8425 24 10.3894 24 9.93628 24C9.8994 23.9888 9.86378 23.9694 9.82628 23.9669C8.84003 23.9006 7.8844 23.6919 6.95628 23.3525C6.88065 23.325 6.78816 23.3212 6.70691 23.3319C5.81066 23.4519 4.91503 23.5756 4.02003 23.7019C3.65128 23.7537 3.33503 23.6581 3.10003 23.365C2.85878 23.0644 2.83128 22.7269 2.98253 22.375C3.1119 22.0744 3.2369 21.7712 3.3819 21.4787C3.46253 21.3169 3.45503 21.2206 3.3119 21.085C1.71253 19.5644 0.671906 17.7262 0.226906 15.5606C0.128781 15.0812 0.0737793 14.5931 -0.0012207 14.1094C-0.0012207 13.6406 -0.0012207 13.1719 -0.0012207 12.7031C0.0350293 12.4181 0.0644043 12.1319 0.108154 11.8475C0.485029 9.40938 1.55003 7.3225 3.36441 5.65C5.85066 3.3575 8.79378 2.45875 12.1444 2.89875C12.3313 2.92313 12.4338 2.87438 12.5432 2.71688C13.38 1.5175 14.495 0.687501 15.9025 0.276251C16.3263 0.152501 16.7682 0.090625 17.2019 0C17.5457 0 17.8894 0 18.2332 0C18.285 0.01375 18.3363 0.0337509 18.3894 0.0400009C20.9813 0.335626 23.0794 2.125 23.7725 4.64625C23.8732 5.0125 23.9244 5.3925 23.9988 5.76625C24 6.10938 24 6.45312 24 6.79688ZM17.7238 10.7019C20.1594 10.6931 22.1275 8.71625 22.125 6.28188C22.1225 3.84438 20.1288 1.86625 17.6844 1.87563C15.2563 1.885 13.2875 3.875 13.2988 6.31C13.31 8.74812 15.2875 10.7106 17.7238 10.7019Z" fill="#D28F51"/>
<path d="M10.6143 15.29C10.4381 15.2631 10.2543 15.2593 10.0862 15.2056C9.65372 15.0687 9.40247 14.6293 9.47122 14.17C9.53434 13.7481 9.90622 13.4168 10.3462 13.3975C10.4943 13.3906 10.6431 13.3931 10.7912 13.395C11.3406 13.4031 11.7462 13.78 11.7631 14.2969C11.7793 14.81 11.3931 15.2219 10.8512 15.265C10.7737 15.2712 10.695 15.2656 10.6168 15.2656C10.6162 15.2737 10.615 15.2819 10.6143 15.29Z" fill="#D28F51"/>
<path d="M6.48187 13.3831C6.63687 13.3962 6.79687 13.3893 6.94625 13.4262C7.3675 13.5293 7.65812 13.9381 7.6375 14.3699C7.61687 14.7974 7.30875 15.1743 6.88437 15.2356C6.6325 15.2718 6.36812 15.2749 6.11625 15.2412C5.6175 15.1743 5.30375 14.7481 5.34 14.2381C5.3725 13.7756 5.76125 13.4143 6.24687 13.3962C6.325 13.3931 6.40312 13.3956 6.48125 13.3956C6.48125 13.3912 6.48125 13.3874 6.48187 13.3831Z" fill="#D28F51"/>
<path d="M14.7374 13.3962C15.3843 13.3943 15.7274 13.6099 15.8568 14.0968C15.9918 14.6037 15.6724 15.1443 15.1543 15.2312C14.8968 15.2743 14.623 15.2737 14.3637 15.2393C13.8768 15.1749 13.563 14.7543 13.5905 14.2555C13.6162 13.7893 13.9999 13.418 14.4799 13.3962C14.5655 13.393 14.6512 13.3962 14.7374 13.3962Z" fill="#D28F51"/>
<path d="M17.6757 5.82946C17.9963 5.44633 18.2969 5.07946 18.6057 4.72008C18.8519 4.43321 19.1763 4.33633 19.5357 4.42071C19.8976 4.50571 20.1338 4.74696 20.2251 5.11196C20.2976 5.40196 20.2401 5.67508 20.0513 5.90508C19.5113 6.56196 18.9726 7.21946 18.4157 7.86196C18.0301 8.30696 17.422 8.30571 17.0138 7.87633C16.632 7.47508 16.2557 7.06821 15.8876 6.65508C15.5276 6.25071 15.5513 5.68383 15.9288 5.33071C16.3151 4.96946 16.882 4.99446 17.2695 5.39321C17.4001 5.52696 17.5245 5.66633 17.6757 5.82946Z" fill="#D28F51"/>
</g>
<defs>
<clipPath id="clip0_0_1712">
<rect width="24" height="24" fill="white"/>
</clipPath>
</defs>
</svg>
