<svg width="24" height="24" viewBox="0 0 24 24" fill="none" xmlns="http://www.w3.org/2000/svg">
<path d="M0.02005 6.47001C0.06005 6.29626 0.095049 6.12126 0.140049 5.94876C0.663174 3.94376 2.6763 2.75626 4.68818 3.25376C5.8063 3.53001 6.9213 3.83126 8.05193 4.04439C9.92318 4.39626 11.8138 4.43751 13.7126 4.28376C15.6344 4.12876 17.4813 3.61376 19.3451 3.17189C21.7263 2.60689 23.9632 4.36189 23.975 6.81189C23.9844 8.68751 23.9782 10.5631 23.9763 12.4388C23.9757 13.0294 23.5832 13.4525 23.0419 13.4525C22.5013 13.4531 22.1063 13.0288 22.1057 12.44C22.1044 10.5725 22.1094 8.70439 22.1032 6.83689C22.1001 5.82564 21.3944 5.04251 20.39 4.95189C20.1332 4.92876 19.8619 4.98126 19.6063 5.03814C18.375 5.31189 17.1544 5.63814 15.9163 5.87314C13.8763 6.26064 11.815 6.32439 9.74442 6.15626C7.9338 6.00939 6.17505 5.61189 4.4313 5.12626C3.49755 4.86626 2.7213 5.11626 2.23005 5.81626C2.00817 6.13189 1.8938 6.48501 1.89317 6.87001C1.8913 10.3163 1.8888 13.7625 1.89442 17.2094C1.89567 18.0438 2.45068 18.7575 3.2313 18.9944C3.38568 19.0413 3.4838 19.0169 3.5988 18.9006C4.59818 17.8906 5.60442 16.8875 6.6088 15.8825C7.83755 14.6525 9.5088 14.655 10.7413 15.8888C10.8182 15.9656 10.8913 16.0475 10.98 16.1419C11.0363 16.0775 11.0819 16.03 11.1219 15.9781C11.5363 15.44 11.9482 14.9 12.3638 14.3631C13.5107 12.88 15.625 12.8588 16.7813 14.3375C17.9544 15.8381 19.1063 17.355 20.2575 18.8725C20.3869 19.0425 20.5088 19.0619 20.6932 19.0125C21.5269 18.7881 22.0576 18.1075 22.1044 17.1894C22.1319 16.6506 22.5351 16.2619 23.0582 16.2694C23.5757 16.2769 23.9744 16.6888 23.9744 17.2263C23.9744 17.7325 23.8694 18.2188 23.6688 18.6831C22.9463 20.3563 21.1257 21.2606 19.3569 20.84C18.0769 20.5356 16.8007 20.2081 15.5094 19.9644C13.8632 19.6531 12.195 19.6263 10.5225 19.7225C8.58067 19.8338 6.7013 20.2763 4.8388 20.795C2.4788 21.4519 0.318801 19.8288 0.0563011 17.7131C0.0525511 17.685 0.0312988 17.6588 0.0187988 17.6313C0.0200488 13.91 0.02005 10.19 0.02005 6.47001ZM17.5638 18.4288C17.3426 18.1394 17.1488 17.8869 16.9551 17.6344C16.4138 16.9281 15.8769 16.2194 15.3307 15.5169C14.9494 15.0269 14.285 14.9756 13.9163 15.4306C13.3763 16.0963 12.8663 16.7856 12.3432 17.465C12.5082 17.7075 12.7019 17.8113 13.0032 17.8294C13.8888 17.8831 14.7732 17.9713 15.6532 18.0838C16.2763 18.1638 16.8913 18.305 17.5638 18.4288ZM6.88818 18.3106C7.9213 18.1563 8.96818 17.9994 10.0519 17.8375C9.8763 17.6663 9.72005 17.515 9.56505 17.3631C9.4588 17.2594 9.3588 17.1488 9.2463 17.0531C8.92755 16.7838 8.45005 16.745 8.14817 17.0238C7.70317 17.4344 7.29818 17.8875 6.88818 18.3106Z" fill="#D28F51"/>
<path d="M9.51943 7.57007C11.0669 7.57132 12.3282 8.83632 12.3294 10.3876C12.3307 11.9476 11.0551 13.2238 9.5038 13.2157C7.96005 13.2069 6.70443 11.9357 6.7063 10.3832C6.70818 8.83195 7.97193 7.5682 9.51943 7.57007ZM8.57818 10.4019C8.58193 10.9182 9.00193 11.3382 9.51505 11.3388C10.0351 11.3401 10.4607 10.9069 10.4563 10.3813C10.4526 9.86569 10.0326 9.4482 9.51755 9.44695C8.99318 9.44632 8.57443 9.87195 8.57818 10.4019Z" fill="#D28F51"/>
</svg>
