<svg width="24" height="24" viewBox="0 0 24 24" fill="none" xmlns="http://www.w3.org/2000/svg">
<path d="M23.9786 12.1876C23.6836 13.0663 22.778 13.0213 22.1155 12.82C21.7117 12.6975 21.518 12.2438 21.5892 11.8075C21.6555 11.4013 21.998 11.0888 22.423 11.0526C22.5386 11.0426 22.6567 11.0519 22.7723 11.0413C23.3517 10.9888 23.7673 11.2057 23.9792 11.7657C23.9786 11.9063 23.9786 12.0469 23.9786 12.1876Z" fill="#D28F51"/>
<path d="M16.7778 4.46816C16.7778 9.48504 16.7778 14.4888 16.7778 19.5282C16.8959 19.4907 17.0072 19.4682 17.1078 19.4219C17.7709 19.1169 18.1478 18.6007 18.234 17.8725C18.2515 17.7257 18.2578 17.5738 18.3015 17.4344C18.439 16.9969 18.8865 16.73 19.3259 16.8082C19.8072 16.8932 20.1259 17.2694 20.1134 17.7644C20.0878 18.8244 19.6847 19.7213 18.914 20.4457C18.2265 21.0919 17.3997 21.415 16.4615 21.4569C16.2515 21.4663 16.0403 21.4694 15.8303 21.4644C15.2928 21.4519 14.9065 21.065 14.8953 20.5269C14.8884 20.1913 14.9022 19.8544 14.8865 19.5194C14.8828 19.4432 14.814 19.325 14.749 19.3019C12.994 18.685 11.2353 18.0782 9.47716 17.47C9.46341 17.465 9.44716 17.4675 9.41903 17.465C9.33591 17.6682 9.26591 17.8819 9.16403 18.0794C8.43966 19.485 7.27778 20.1925 5.70591 20.2375C5.50341 20.2432 5.30028 20.24 5.09778 20.2382C4.45841 20.2325 4.07716 19.8588 4.07403 19.2188C4.06903 18.2032 4.07279 17.1875 4.07216 16.1719C4.07216 16.08 4.07216 15.9875 4.07216 15.885C3.75029 15.8563 3.44778 15.8482 3.15153 15.8C1.39278 15.5169 0.0602828 13.9563 0.0227828 12.1719C-0.0122172 10.5175 0.659659 9.27504 2.12528 8.49129C2.64216 8.21504 3.20966 8.05317 3.79153 8.11129C4.74153 8.20629 5.57779 7.84754 6.43529 7.54942C9.17778 6.59692 11.9203 5.64379 14.6659 4.69942C14.8484 4.63692 14.9072 4.55629 14.8972 4.36942C14.8809 4.07317 14.8884 3.77567 14.8947 3.47879C14.9053 2.98442 15.2253 2.59879 15.7153 2.55504C17.3259 2.41004 18.6465 2.92692 19.5515 4.32254C19.9434 4.92754 20.1172 5.60317 20.1178 6.32254C20.1197 8.54129 20.1222 10.76 20.1165 12.9788C20.1147 13.6938 19.5034 14.1538 18.8753 13.9257C18.514 13.7944 18.3034 13.5313 18.259 13.1457C18.2465 13.0375 18.2484 12.9275 18.2484 12.8182C18.2478 10.6932 18.2447 8.56817 18.2497 6.44317C18.2515 5.62942 17.9278 5.01129 17.2072 4.61692C17.1322 4.57629 17.0515 4.54442 16.9715 4.51567C16.914 4.49442 16.8522 4.48566 16.7778 4.46816ZM14.8822 6.61441C14.8109 6.63504 14.7584 6.64754 14.7084 6.66504C11.8547 7.65379 9.00216 8.64504 6.14654 9.62942C5.98279 9.68567 5.93966 9.77004 5.94091 9.93379C5.94716 11.2932 5.94841 12.6525 5.93966 14.0119C5.93841 14.2025 5.99903 14.2819 6.17528 14.3425C8.55278 15.16 10.9278 15.9863 13.3028 16.8094C13.8228 16.9894 14.3434 17.1682 14.8822 17.3538C14.8822 13.7638 14.8822 10.2044 14.8822 6.61441ZM4.05216 13.975C4.05216 12.6313 4.05216 11.3113 4.05216 9.98379C3.24341 9.92754 2.59403 10.1919 2.18653 10.88C1.75591 11.6069 1.75903 12.3775 2.19903 13.1C2.61028 13.7738 3.25466 14.0313 4.05216 13.975ZM5.95966 16.2469C5.95966 16.9582 5.95966 17.6375 5.95966 18.3169C6.74591 18.3432 7.59091 17.4825 7.59528 16.8125C7.06153 16.6275 6.52153 16.4407 5.95966 16.2469Z" fill="#D28F51"/>
<path d="M22.6571 17.5358C22.6414 17.5358 22.6258 17.5364 22.6102 17.5358C21.9939 17.5183 21.2627 16.6839 21.3464 16.0926C21.3964 15.7383 21.5939 15.4914 21.9196 15.3564C22.2577 15.2164 22.5808 15.2701 22.8589 15.5026C23.0433 15.657 23.2158 15.8295 23.3689 16.0145C23.6146 16.3108 23.6527 16.6533 23.4914 16.9995C23.3296 17.347 23.0408 17.5226 22.6571 17.5358Z" fill="#D28F51"/>
<path d="M22.5816 6.41309C23.0341 6.43996 23.3197 6.60684 23.4835 6.94309C23.651 7.28684 23.6222 7.63184 23.3803 7.92996C23.2197 8.12809 23.0341 8.31121 22.8372 8.47434C22.4941 8.75996 21.9922 8.73809 21.6585 8.44496C21.321 8.14934 21.2072 7.64434 21.4641 7.28371C21.6635 7.00434 21.9335 6.76871 22.1997 6.54684C22.3141 6.45059 22.4985 6.43934 22.5816 6.41309Z" fill="#D28F51"/>
<path d="M13.0528 11.9876C13.0528 12.3851 13.0585 12.7832 13.0516 13.1807C13.0416 13.7639 12.6591 14.1651 12.121 14.167C11.5822 14.1689 11.1897 13.7682 11.1841 13.1876C11.176 12.3845 11.1766 11.5814 11.1841 10.7782C11.1891 10.1976 11.5785 9.79325 12.1141 9.792C12.6522 9.79075 13.0403 10.1907 13.051 10.7714C13.0591 11.1764 13.0528 11.582 13.0528 11.9876Z" fill="#D28F51"/>
</svg>
