<svg width="24" height="24" viewBox="0 0 24 24" fill="none" xmlns="http://www.w3.org/2000/svg">
<g clip-path="url(#clip0_0_1679)">
<path d="M23.9367 6.30377C23.9367 9.21424 23.9367 12.1252 23.9367 15.0356C23.8912 15.286 23.8476 15.5367 23.7993 15.7866C23.6011 16.8113 23.2336 17.7722 22.6987 18.6675C22.4864 19.0228 22.0997 19.2 21.7298 19.1288C21.3272 19.0514 21.0009 18.7552 20.9765 18.3474C20.9625 18.1158 21.0309 17.8486 21.1453 17.6442C21.7509 16.5633 22.0926 15.4069 22.1044 14.1736C22.1269 11.7614 22.1133 9.34924 22.1128 6.93705C22.1128 6.68627 22.0608 6.65862 21.817 6.71721C20.9939 6.91455 20.1726 7.1208 19.3444 7.29284C18.8151 7.40252 18.2742 7.45784 17.7553 7.53518C17.7183 8.60065 17.6822 9.65205 17.6456 10.7049C17.6873 10.7002 17.7562 10.6936 17.8247 10.6842C18.9117 10.5347 19.8347 10.8652 20.5992 11.6438C20.9981 12.0502 20.9981 12.6253 20.6104 12.9975C20.2228 13.3692 19.65 13.343 19.2581 12.9333C19.0345 12.6994 18.7612 12.5522 18.4429 12.5236C18.0576 12.4889 17.722 12.5728 17.4506 12.9061C17.3165 13.0707 17.0634 13.1377 16.867 13.253C16.7826 13.3027 16.6725 13.3458 16.6294 13.4227C16.2356 14.1249 15.7701 14.7741 15.2329 15.3722C15.1636 15.4496 15.0956 15.5288 15.0417 15.5906C15.4969 15.6703 15.9468 15.7144 16.3767 15.8316C17.1965 16.0552 17.8823 16.4977 18.3483 17.228C18.6558 17.7103 18.5287 18.2972 18.075 18.5794C17.6212 18.8616 17.0742 18.7139 16.7639 18.2353C16.6936 18.1266 16.6012 18.0258 16.5009 17.9438C16.1972 17.6944 15.8367 17.5688 15.4509 17.536C14.5729 17.4614 13.7653 17.5524 13.2033 18.3769C12.8822 18.8475 12.172 18.8339 11.7965 18.4022C11.7464 18.3446 11.7019 18.2822 11.6489 18.2142C11.1844 18.4688 10.7269 18.7196 10.26 18.975C10.3083 19.0289 10.3579 19.0871 10.4109 19.1424C11.5143 20.2908 12.8264 21.1439 14.2518 21.8288C14.8809 22.1311 15.5461 22.1349 16.1681 21.8171C16.9003 21.4435 17.6161 21.0342 18.3197 20.6086C18.832 20.2988 19.3711 20.3456 19.6856 20.7867C20.0072 21.2377 19.8867 21.7931 19.3926 22.1442C18.5906 22.7138 17.7295 23.1797 16.83 23.5711C16.0467 23.9119 15.2292 23.9874 14.3864 23.8238C13.725 23.6958 13.1451 23.3822 12.5672 23.0625C10.9247 22.1541 9.44341 21.0446 8.29966 19.5366C8.04373 19.1996 7.79248 18.9005 7.3542 18.8241C7.30216 18.8147 7.25201 18.7866 7.20326 18.7627C5.27623 17.8153 3.54982 16.6041 2.18623 14.9222C0.903257 13.3402 0.132631 11.5411 0.0932564 9.49596C0.0445064 6.98346 0.0674755 4.46956 0.0848192 1.95612C0.0899755 1.18971 0.479506 0.60893 1.15638 0.243305C1.35794 0.134555 1.58763 0.0778369 1.80466 -0.00231934C2.00716 -0.00231934 2.20919 -0.00231934 2.4117 -0.00231934C2.54388 0.0384619 2.67372 0.0881483 2.80826 0.118148C3.75419 0.329086 4.69451 0.580806 5.64982 0.734556C7.4067 1.01674 9.1781 1.03737 10.9514 0.88643C12.4809 0.756118 13.9762 0.458462 15.4397 -0.00231934C15.6262 -0.00231934 15.8133 -0.00231934 15.9998 -0.00231934C16.0204 0.00846191 16.0397 0.0258049 16.0617 0.0290861C16.9322 0.160805 17.7553 0.963305 17.7309 2.16049C17.7089 3.23252 17.7262 4.30502 17.7262 5.37752C17.7262 5.46143 17.7262 5.54534 17.7262 5.63815C17.797 5.63159 17.8425 5.6283 17.8875 5.62315C19.0936 5.48487 20.2739 5.22705 21.4392 4.88909C22.267 4.64862 23.1014 4.94768 23.5969 5.65174C23.7356 5.85237 23.8247 6.08627 23.9367 6.30377ZM1.94341 5.81346C1.94341 6.8719 1.95138 7.92987 1.94154 8.98831C1.92466 10.8169 2.53685 12.4158 3.6881 13.8183C4.77279 15.1392 6.13966 16.0983 7.63498 16.8975C8.4806 17.3494 9.28591 17.4038 10.1531 16.913C11.3367 16.2431 12.4734 15.5208 13.44 14.5556C14.9175 13.0805 15.8315 11.3405 15.8508 9.21518C15.8723 6.85784 15.8569 4.49956 15.8564 2.14174C15.8564 1.87596 15.8048 1.83706 15.5508 1.91346C14.0109 2.37612 12.4378 2.65034 10.8347 2.76752C7.94623 2.97893 5.10232 2.7469 2.31701 1.92237C1.99357 1.82674 1.94294 1.86377 1.94294 2.19518C1.94294 3.40127 1.94341 4.60737 1.94341 5.81346Z" fill="#D28F51"/>
<path d="M9.043 13.9219C7.69487 13.8943 6.66878 13.5994 5.86862 12.7613C5.67081 12.5541 5.50675 12.2911 5.40316 12.0244C5.23816 11.6002 5.4669 11.1286 5.87378 10.9294C6.27409 10.7335 6.78315 10.83 7.01847 11.205C7.38034 11.7821 7.93018 11.9743 8.55315 12.0347C9.03034 12.0811 9.51269 12.0497 9.93784 11.8144C10.1797 11.6804 10.4089 11.4835 10.5772 11.2636C10.8941 10.8493 11.4139 10.7049 11.8527 10.9669C12.2886 11.2271 12.4424 11.7699 12.1817 12.2255C11.7285 13.0191 11.0122 13.4827 10.1544 13.7218C9.72362 13.8418 9.27175 13.8825 9.043 13.9219Z" fill="#D28F51"/>
<path d="M14.5955 7.46717C14.5974 7.84077 14.3724 8.18671 14.0232 8.32827C13.6364 8.4853 13.29 8.40514 12.9929 8.11921C12.6296 7.76999 12.2049 7.60733 11.7155 7.76014C11.5022 7.82671 11.2941 7.96124 11.1258 8.11171C10.7114 8.48249 10.1583 8.50499 9.78333 8.13374C9.40973 7.76389 9.41536 7.19905 9.79645 6.79452C10.995 5.52139 13.1199 5.51905 14.3025 6.80389C14.4614 6.97639 14.5402 7.22202 14.6564 7.43342C14.6363 7.44467 14.6161 7.45592 14.5955 7.46717Z" fill="#D28F51"/>
<path d="M5.77854 5.83411C6.65604 5.85192 7.40932 6.15567 8.02666 6.77395C8.43307 7.18083 8.44338 7.74942 8.06604 8.12864C7.68869 8.50786 7.13322 8.49379 6.71229 8.09442C6.16198 7.57176 5.41525 7.57317 4.87338 8.0977C4.46229 8.49567 3.89557 8.50739 3.51963 8.12536C3.15073 7.75083 3.15869 7.18833 3.54963 6.78708C4.16041 6.16036 4.91182 5.85426 5.77854 5.83411Z" fill="#D28F51"/>
</g>
<defs>
<clipPath id="clip0_0_1679">
<rect width="24" height="24" fill="white"/>
</clipPath>
</defs>
</svg>
