<svg width="16" height="17" viewBox="0 0 16 17" fill="none" xmlns="http://www.w3.org/2000/svg">
<path d="M8.04493 2.97C8.3854 2.56953 8.79874 2.18762 9.28302 1.8881C10.5602 1.09857 11.8797 1.13334 13.1973 1.74476C14.6854 2.43572 15.5425 3.65857 15.8664 5.23572C16.2754 7.2281 15.7344 8.9781 14.3135 10.4238C13.7487 10.9986 13.0992 11.4905 12.4873 12.0191C11.1554 13.1691 9.82159 14.3171 8.49064 15.4681C8.28207 15.6481 8.05398 15.7352 7.78636 15.6386C7.69398 15.6052 7.6054 15.5476 7.53017 15.4829C5.60636 13.8267 3.66826 12.1867 1.76921 10.5019C0.814928 9.65572 0.263974 8.55 0.0739738 7.28286C-0.160788 5.71953 0.158262 4.27714 1.15636 3.0381C2.17445 1.77524 3.5254 1.19619 5.1435 1.32762C6.09397 1.40476 6.86588 1.89524 7.54874 2.53762C7.70445 2.68476 7.87064 2.81905 8.04493 2.97ZM7.99778 14.1448C8.04731 14.1038 8.08398 14.0743 8.11969 14.0433C9.78064 12.61 11.4445 11.18 13.1016 9.74238C14.3787 8.63429 14.8906 7.23429 14.5892 5.56953C14.3925 4.48476 13.8435 3.60905 12.8597 3.05381C11.5897 2.33667 10.0968 2.51762 9.14112 3.51667C8.91731 3.75048 8.74207 4.03238 8.55445 4.29905C8.27017 4.70334 7.7235 4.70619 7.44588 4.29762C7.40255 4.23381 7.36493 4.16619 7.32302 4.10095C7.01969 3.62762 6.64302 3.22953 6.14302 2.96191C4.97683 2.33762 3.41778 2.59524 2.42874 3.58667C0.941117 5.0781 0.862068 7.87095 2.69826 9.56238C3.57683 10.3719 4.50302 11.129 5.40778 11.91C6.26683 12.6514 7.12636 13.3933 7.99778 14.1448Z" fill="#D28F51"/>
<path d="M7.99796 14.1448C7.12653 13.3929 6.26701 12.6514 5.40748 11.9095C4.50272 11.1286 3.57653 10.3714 2.69796 9.5619C0.862247 7.87047 0.940816 5.07761 2.42844 3.58619C3.41748 2.59476 4.97701 2.33762 6.14272 2.96142C6.64272 3.22904 7.01939 3.62761 7.32272 4.10047C7.36463 4.16571 7.40224 4.23333 7.44558 4.29714C7.7232 4.70523 8.26986 4.70285 8.55415 4.29857C8.74177 4.0319 8.91701 3.75 9.14082 3.51619C10.0965 2.51666 11.5894 2.33619 12.8594 3.05333C13.8432 3.60857 14.3922 4.48476 14.5889 5.56904C14.8908 7.23381 14.3784 8.63381 13.1013 9.7419C11.4441 11.1795 9.78034 12.6095 8.11939 14.0429C8.08415 14.0743 8.04701 14.1038 7.99796 14.1448Z" fill="#D28F51"/>
</svg>
