<svg width="30" height="30" viewBox="0 0 30 30" fill="none" xmlns="http://www.w3.org/2000/svg">
<path d="M7.05093 12.1094C6.72863 12.1094 6.41933 12.1585 6.11148 12.2033C6.21121 11.868 6.31382 11.5269 6.47859 11.2205C6.64335 10.7753 6.90062 10.3894 7.15644 10.0006C7.37035 9.58006 7.74757 9.29533 8.02507 8.93545C8.31558 8.58568 8.7116 8.35298 9.02523 8.06248C9.33308 7.75896 9.73632 7.6072 10.0572 7.3933C10.3925 7.20107 10.6844 6.98861 10.9966 6.88744L11.7757 6.56658L12.4607 6.28185L11.7598 3.48083L10.8969 3.68896C10.6209 3.75833 10.2841 3.83927 9.90109 3.93611C9.50941 4.00837 9.09171 4.20638 8.62632 4.38705C8.16671 4.59228 7.63484 4.73103 7.14054 5.06056C6.64335 5.37564 6.06957 5.63869 5.56371 6.06072C5.07375 6.49576 4.48261 6.87298 4.04613 7.42654C3.56918 7.94396 3.098 8.4874 2.73234 9.10599C2.30886 9.69568 2.02125 10.3432 1.71773 10.9835C1.44312 11.6237 1.22199 12.2785 1.04132 12.9144C0.698786 14.1892 0.545582 15.4003 0.486325 16.4366C0.437184 17.4744 0.46609 18.3372 0.526793 18.9616C0.548473 19.2564 0.588942 19.5426 0.617848 19.7406L0.653981 19.9834L0.691559 19.9747C0.948624 21.1756 1.5404 22.2791 2.39842 23.1576C3.25644 24.0361 4.34566 24.6538 5.54006 24.9391C6.73446 25.2245 7.98525 25.1659 9.14773 24.7701C10.3102 24.3742 11.3369 23.6574 12.109 22.7025C12.881 21.7475 13.367 20.5935 13.5106 19.3739C13.6543 18.1543 13.4497 16.919 12.9205 15.8108C12.3914 14.7027 11.5593 13.7669 10.5206 13.1119C9.4819 12.4569 8.27895 12.1093 7.05093 12.1094ZM22.9494 12.1094C22.6271 12.1094 22.3178 12.1585 22.0099 12.2033C22.1096 11.868 22.2123 11.5269 22.377 11.2205C22.5418 10.7753 22.7991 10.3894 23.0549 10.0006C23.2688 9.58006 23.646 9.29533 23.9235 8.93545C24.214 8.58568 24.61 8.35298 24.9237 8.06248C25.2315 7.75896 25.6348 7.6072 25.9556 7.3933C26.2909 7.20107 26.5829 6.98861 26.8951 6.88744L27.6741 6.56658L28.3592 6.28185L27.6582 3.48083L26.7953 3.68896C26.5193 3.75833 26.1825 3.83927 25.7995 3.93611C25.4078 4.00837 24.9901 4.20638 24.5248 4.38705C24.0666 4.59373 23.5333 4.73103 23.039 5.06201C22.5418 5.37709 21.968 5.64013 21.4621 6.06216C20.9722 6.4972 20.381 6.87443 19.9446 7.42654C19.4676 7.94396 18.9964 8.4874 18.6308 9.10599C18.2073 9.69568 17.9197 10.3432 17.6162 10.9835C17.3416 11.6237 17.1204 12.2785 16.9398 12.9144C16.5972 14.1892 16.444 15.4003 16.3848 16.4366C16.3356 17.4744 16.3645 18.3372 16.4252 18.9616C16.4469 19.2564 16.4874 19.5426 16.5163 19.7406L16.5524 19.9834L16.59 19.9747C16.8471 21.1756 17.4388 22.2791 18.2969 23.1576C19.1549 24.0361 20.2441 24.6538 21.4385 24.9391C22.6329 25.2245 23.8837 25.1659 25.0462 24.7701C26.2086 24.3742 27.2353 23.6574 28.0074 22.7025C28.7795 21.7475 29.2654 20.5935 29.4091 19.3739C29.5527 18.1543 29.3481 16.919 28.819 15.8108C28.2898 14.7027 27.4578 13.7669 26.4191 13.1119C25.3803 12.4569 24.1774 12.1093 22.9494 12.1094Z" fill="#D28F51"/>
</svg>
